<svg width="20" height="20" viewBox="0 0 20 20" fill="none" xmlns="http://www.w3.org/2000/svg">
<path d="M11.1858 10.0113L11.1965 10.0019L11.1858 9.99253L6.11232 5.54469L6.10408 5.55409L6.11232 5.54469C5.94249 5.39582 5.85581 5.20911 5.85188 4.98374L5.85188 4.98373C5.84794 4.75873 5.93446 4.56864 6.11232 4.41273L6.11232 4.41273C6.29032 4.25667 6.50609 4.17852 6.76039 4.17852C7.01469 4.17852 7.23047 4.25667 7.40846 4.41273L13.0065 9.32044C13.1221 9.42171 13.203 9.52803 13.25 9.6393C13.2972 9.75105 13.3209 9.87188 13.3209 10.0019C13.3209 10.132 13.2972 10.2528 13.25 10.3645C13.203 10.4758 13.1221 10.5821 13.0065 10.6834L13.0148 10.6928L13.0065 10.6834L7.40847 15.5911C7.23855 15.7401 7.02477 15.8166 6.7662 15.8201C6.50792 15.8235 6.29023 15.7471 6.11232 15.5911L6.10408 15.6005L6.11232 15.5911C5.93436 15.4351 5.84587 15.2467 5.84587 15.0251C5.84587 14.8036 5.93436 14.6152 6.11232 14.4592L11.1858 10.0113Z" fill="black" stroke="black" stroke-width="0.025"/>
</svg>
