<svg width="20" height="20" viewBox="0 0 20 20" fill="none" xmlns="http://www.w3.org/2000/svg">
<path d="M7.98914 9.9971L13.0626 14.4449C13.2351 14.5961 13.3233 14.7862 13.3273 15.0151C13.3313 15.244 13.2431 15.4375 13.0626 15.5957C12.8822 15.7539 12.6634 15.833 12.4063 15.833C12.1492 15.833 11.9304 15.7539 11.75 15.5957L6.15193 10.688C6.03534 10.5858 5.95309 10.478 5.9052 10.3646C5.85729 10.2512 5.83333 10.1287 5.83333 9.9971C5.83333 9.86549 5.85728 9.743 5.9052 9.62961C5.95309 9.51621 6.03534 9.40841 6.15193 9.30621L11.75 4.39851C11.9225 4.2473 12.1392 4.16995 12.4003 4.16646C12.6614 4.16294 12.8822 4.24029 13.0626 4.39851C13.2431 4.5567 13.3333 4.74849 13.3333 4.97388C13.3333 5.19927 13.2431 5.39106 13.0626 5.54926L7.98914 9.9971Z" fill="black"/>
</svg>
