<svg width="22" height="22" viewBox="0 0 22 22" fill="none" xmlns="http://www.w3.org/2000/svg">
<path d="M10.9922 15.428C11.9856 15.428 12.8277 15.0825 13.5187 14.3916C14.2096 13.7007 14.555 12.8585 14.555 11.8651C14.555 10.8718 14.2096 10.0296 13.5187 9.33869C12.8277 8.64778 11.9856 8.30232 10.9922 8.30232C9.99884 8.30232 9.15669 8.64778 8.46577 9.33869C7.77485 10.0296 7.42939 10.8718 7.42939 11.8651C7.42939 12.8585 7.77485 13.7007 8.46577 14.3916C9.15669 15.0825 9.99884 15.428 10.9922 15.428ZM10.9922 14.1294C10.3529 14.1294 9.81569 13.9119 9.3806 13.4768C8.9455 13.0417 8.72796 12.5045 8.72796 11.8651C8.72796 11.2258 8.9455 10.6886 9.3806 10.2535C9.81569 9.81843 10.3529 9.60088 10.9922 9.60088C11.6315 9.60088 12.1687 9.81843 12.6038 10.2535C13.0389 10.6886 13.2565 11.2258 13.2565 11.8651C13.2565 12.5045 13.0389 13.0417 12.6038 13.4768C12.1687 13.9119 11.6315 14.1294 10.9922 14.1294ZM4.3327 18.3582C3.89539 18.3582 3.52522 18.2067 3.22221 17.9037C2.9192 17.6007 2.7677 17.2305 2.7677 16.7932L2.7677 6.93711C2.7677 6.49979 2.9192 6.12963 3.22221 5.82662C3.52522 5.52361 3.89539 5.37211 4.3327 5.37211L6.97652 5.37211L8.10865 4.14509C8.25072 3.9886 8.42248 3.86539 8.62394 3.77549C8.82538 3.68558 9.03765 3.64062 9.26073 3.64062L12.7237 3.64062C12.9468 3.64062 13.1591 3.68558 13.3605 3.77549C13.562 3.86539 13.7337 3.9886 13.8758 4.14509L15.0079 5.37211L17.6517 5.37211C18.089 5.37211 18.4592 5.52361 18.7622 5.82662C19.0652 6.12963 19.2167 6.49979 19.2167 6.93711L19.2167 16.7932C19.2167 17.2305 19.0652 17.6007 18.7622 17.9037C18.4592 18.2067 18.089 18.3582 17.6517 18.3582H4.3327ZM4.3327 17.0596H17.6517C17.7294 17.0596 17.7933 17.0346 17.8432 16.9847C17.8932 16.9347 17.9181 16.8709 17.9181 16.7932V6.93711C17.9181 6.85941 17.8932 6.79558 17.8432 6.74563C17.7933 6.69567 17.7294 6.6707 17.6517 6.6707H14.4285L12.8402 4.93922L9.14418 4.93922L7.5559 6.6707L4.3327 6.6707C4.255 6.6707 4.19117 6.69567 4.14122 6.74563C4.09127 6.79558 4.06629 6.85941 4.06629 6.93711L4.06629 16.7932C4.06629 16.8709 4.09127 16.9347 4.14122 16.9847C4.19117 17.0346 4.255 17.0596 4.3327 17.0596Z" fill="black"/>
</svg>
