<svg width="20" height="20" viewBox="0 0 20 20" fill="none" xmlns="http://www.w3.org/2000/svg">
<path d="M10 11.1663L5.91667 15.2497C5.76389 15.4025 5.56944 15.4788 5.33333 15.4788C5.09722 15.4788 4.90278 15.4025 4.75 15.2497C4.59722 15.0969 4.52083 14.9025 4.52083 14.6663C4.52083 14.4302 4.59722 14.2358 4.75 14.083L8.83333 9.99967L4.75 5.91634C4.59722 5.76356 4.52083 5.56912 4.52083 5.33301C4.52083 5.0969 4.59722 4.90245 4.75 4.74967C4.90278 4.5969 5.09722 4.52051 5.33333 4.52051C5.56944 4.52051 5.76389 4.5969 5.91667 4.74967L10 8.83301L14.0833 4.74967C14.2361 4.5969 14.4306 4.52051 14.6667 4.52051C14.9028 4.52051 15.0972 4.5969 15.25 4.74967C15.4028 4.90245 15.4792 5.0969 15.4792 5.33301C15.4792 5.56912 15.4028 5.76356 15.25 5.91634L11.1667 9.99967L15.25 14.083C15.4028 14.2358 15.4792 14.4302 15.4792 14.6663C15.4792 14.9025 15.4028 15.0969 15.25 15.2497C15.0972 15.4025 14.9028 15.4788 14.6667 15.4788C14.4306 15.4788 14.2361 15.4025 14.0833 15.2497L10 11.1663Z" fill="black"/>
</svg>
