<svg width="16" height="16" viewBox="0 0 16 16" fill="none" xmlns="http://www.w3.org/2000/svg">
<path d="M8.00004 12.0531L4.76853 13.8876C4.62578 13.9732 4.47653 14.0099 4.3208 13.9977C4.16506 13.9855 4.02879 13.9366 3.91199 13.8509C3.79519 13.7653 3.70434 13.6583 3.63945 13.5299C3.57456 13.4015 3.56159 13.2578 3.60052 13.0988L4.45706 9.63157L1.59543 7.30174C1.46565 7.19167 1.38454 7.06631 1.35209 6.92566C1.31965 6.78502 1.32938 6.64743 1.38129 6.5129C1.4332 6.37837 1.51107 6.2683 1.6149 6.18269C1.71872 6.09708 1.86148 6.04204 2.04317 6.01758L5.81975 5.70571L7.27977 2.44028C7.34466 2.29352 7.44523 2.18345 7.5815 2.11007C7.71777 2.03669 7.85728 2 8.00004 2C8.1428 2 8.28231 2.03669 8.41858 2.11007C8.55485 2.18345 8.65543 2.29352 8.72032 2.44028L10.1803 5.70571L13.9569 6.01758C14.1386 6.04204 14.2814 6.09708 14.3852 6.18269C14.489 6.2683 14.5669 6.37837 14.6188 6.5129C14.6707 6.64743 14.6804 6.78502 14.648 6.92566C14.6155 7.06631 14.5344 7.19167 14.4047 7.30174L11.543 9.63157L12.3996 13.0988C12.4385 13.2578 12.4255 13.4015 12.3606 13.5299C12.2957 13.6583 12.2049 13.7653 12.0881 13.8509C11.9713 13.9366 11.835 13.9855 11.6793 13.9977C11.5236 14.0099 11.3743 13.9732 11.2315 13.8876L8.00004 12.0531Z" fill="#FFC107"/>
</svg>
